<?xml version="1.0" standalone="no"?><!DOCTYPE svg PUBLIC "-//W3C//DTD SVG 1.1//EN" "http://www.w3.org/Graphics/SVG/1.1/DTD/svg11.dtd"><svg t="1573461364083" class="icon" viewBox="0 0 1024 1024" version="1.1" xmlns="http://www.w3.org/2000/svg" p-id="12541" xmlns:xlink="http://www.w3.org/1999/xlink" width="200" height="200"><defs><style type="text/css">@font-face { font-family: uc-nexus-iconfont; src: url("chrome-extension://pogijhnlcfmcppgimcaccdkmbedjkmhi/res/font_9qmmi8b8jsxxbt9.woff") format("woff"), url("chrome-extension://pogijhnlcfmcppgimcaccdkmbedjkmhi/res/font_9qmmi8b8jsxxbt9.ttf") format("truetype"); }
</style></defs><path d="M901.246235 315.809689 688.206164 315.809689l0-96.939843c0-73.890894-53.574173-131.257439-128.769782-131.257439l-82.863243 0c-75.762521 0-140.385331 59.793828-140.385331 131.257439l0 96.939843L134.765333 315.809689c-34.268478 0-67.705008 29.333072-67.705008 63.60155l0 497.17741c0 34.268478 33.437553 60.367903 67.705008 60.367903l766.480902 0c34.268478 0 56.089459-26.099425 56.089459-60.367903L957.335694 379.412262C957.335694 345.142761 935.514713 315.809689 901.246235 315.809689zM377.12108 218.869846c0-49.443086 45.64048-90.325192 99.453083-90.325192l82.863243 0c51.576679 0 87.837534 40.053228 87.837534 90.325192l0 96.939843-270.152836 0L377.122103 218.869846zM916.403446 876.588649c0 11.393491-3.76372 19.435655-15.157211 19.435655L134.765333 896.024304c-11.393491 0-26.77276-8.042163-26.77276-19.435655L107.992573 379.412262c0-11.393491 15.379269-22.669302 26.77276-22.669302l763.730255 0 2.75167 0c11.393491 0 15.157211 11.275811 15.157211 22.669302L916.40447 876.588649z" p-id="12542"></path><path d="M631.94172 542.983665l-47.089481 0 0-39.277562c0-34.268478-22.221094-64.076364-56.489572-64.076364l-20.715811 0c-34.268478 0-68.105121 29.806863-68.105121 64.076364l0 39.277562-35.473933 0c-34.268478 0-67.879993 30.03199-67.879993 64.300468l0 20.715811c0 34.268478 33.611515 60.293201 67.879993 60.293201l35.473933 0 0 43.284829c0 34.268478 33.836643 60.069097 68.105121 60.069097l20.715811 0c34.268478 0 56.489572-25.799596 56.489572-60.069097l0-43.284829 47.089481 0c34.268478 0 56.264445-26.024723 56.264445-60.293201L688.206164 607.284133C688.206164 573.015655 666.210197 542.983665 631.94172 542.983665zM647.273916 627.999944c0 11.393491-3.938706 19.360953-15.332197 19.360953l-62.147432 0c-11.393491 0-26.897603 10.677177-26.897603 22.070668l0 62.147432c0 11.393491-3.140527 19.136849-14.534018 19.136849l-20.715811 0c-11.393491 0-26.149567-7.743358-26.149567-19.136849l0-62.147432c0-11.393491-3.888564-22.070668-15.282055-22.070668l-62.147432 0c-11.393491 0-26.947745-7.967462-26.947745-19.360953L377.120057 607.284133c0-11.393491 15.554254-22.344914 26.947745-22.344914l62.147432 0c11.393491 0 15.282055-7.693216 15.282055-19.086707l0-62.147432c0-11.393491 14.756075-22.12081 26.149567-22.12081l17.96414 0 2.75167 0c11.393491 0 14.534018 10.727319 14.534018 22.12081l0 62.147432c0 11.393491 15.504112 19.086707 26.897603 19.086707l62.147432 0c11.393491 0 15.332197 10.951423 15.332197 22.344914L647.273916 627.999944z" p-id="12543"></path></svg>