<?xml version="1.0" standalone="no"?><!DOCTYPE svg PUBLIC "-//W3C//DTD SVG 1.1//EN" "http://www.w3.org/Graphics/SVG/1.1/DTD/svg11.dtd"><svg t="1573461470337" class="icon" viewBox="0 0 1053 1024" version="1.1" xmlns="http://www.w3.org/2000/svg" p-id="15390" xmlns:xlink="http://www.w3.org/1999/xlink" width="205.6640625" height="200"><defs><style type="text/css">@font-face { font-family: uc-nexus-iconfont; src: url("chrome-extension://pogijhnlcfmcppgimcaccdkmbedjkmhi/res/font_9qmmi8b8jsxxbt9.woff") format("woff"), url("chrome-extension://pogijhnlcfmcppgimcaccdkmbedjkmhi/res/font_9qmmi8b8jsxxbt9.ttf") format("truetype"); }
</style></defs><path d="M1021.28 456.8a32 32 0 0 0-32 32A471.68 471.68 0 0 1 518.08 960a32 32 0 0 0 0 64 535.84 535.84 0 0 0 535.2-535.2 32 32 0 0 0-32-32z" p-id="15391"></path><path d="M518.08 802.08a32 32 0 0 0 0 64 375.84 375.84 0 0 0 375.2-375.36 32 32 0 0 0-64 0 311.68 311.68 0 0 1-311.2 311.36z" p-id="15392"></path><path d="M734.56 480.96A245.76 245.76 0 1 0 488.8 724.8a245.6 245.6 0 0 0 245.76-243.84z m-427.52 0A181.76 181.76 0 1 1 488.8 660.8a181.12 181.12 0 0 1-181.76-179.84zM700.16 297.28a32 32 0 0 0 22.4-9.12l102.88-101.28a32 32 0 1 0-44.8-45.6l-103.04 101.28a32 32 0 0 0 22.56 54.72zM247.04 288.96a32 32 0 1 0 44.8-45.6l-102.88-101.12A32 32 0 1 0 144 187.84zM475.52 206.4a32 32 0 0 0 32-32V32a32 32 0 0 0-64 0v142.4a32 32 0 0 0 32 32zM214.08 660.16l-103.04 101.12a32 32 0 0 0 44.96 45.76l102.88-101.12a32 32 0 0 0-44.8-45.76z" p-id="15393"></path><path d="M208 467.68a32 32 0 0 0-32-32H32a32 32 0 0 0 0 64h144a32 32 0 0 0 32-32z" p-id="15394"></path></svg>