<?xml version="1.0" standalone="no"?><!DOCTYPE svg PUBLIC "-//W3C//DTD SVG 1.1//EN" "http://www.w3.org/Graphics/SVG/1.1/DTD/svg11.dtd"><svg t="1573127975793" class="icon" viewBox="0 0 1024 1024" version="1.1" xmlns="http://www.w3.org/2000/svg" p-id="1310" xmlns:xlink="http://www.w3.org/1999/xlink" width="200" height="200"><defs><style type="text/css">@font-face { font-family: uc-nexus-iconfont; src: url("chrome-extension://pogijhnlcfmcppgimcaccdkmbedjkmhi/res/font_9qmmi8b8jsxxbt9.woff") format("woff"), url("chrome-extension://pogijhnlcfmcppgimcaccdkmbedjkmhi/res/font_9qmmi8b8jsxxbt9.ttf") format("truetype"); }
</style></defs><path d="M704 224H512a32 32 0 0 0 0 64h192a64 64 0 0 1 0 128H224a32 32 0 0 0 0 64h480a128 128 0 0 0 0-256zM832 800h-96a32 32 0 0 1 0-64h96a64 64 0 0 0 0-128H96a32 32 0 0 1 0-64h736a128 128 0 0 1 0 256z" p-id="1311"></path><path d="M608 736H224a32 32 0 0 0 0 64h384a32 32 0 0 0 0-64z" p-id="1312"></path></svg>