<?xml version="1.0" standalone="no"?><!DOCTYPE svg PUBLIC "-//W3C//DTD SVG 1.1//EN" "http://www.w3.org/Graphics/SVG/1.1/DTD/svg11.dtd"><svg t="1573127738720" class="icon" viewBox="0 0 1024 1024" version="1.1" xmlns="http://www.w3.org/2000/svg" p-id="2760" xmlns:xlink="http://www.w3.org/1999/xlink" width="200" height="200"><defs><style type="text/css">@font-face { font-family: uc-nexus-iconfont; src: url("chrome-extension://pogijhnlcfmcppgimcaccdkmbedjkmhi/res/font_9qmmi8b8jsxxbt9.woff") format("woff"), url("chrome-extension://pogijhnlcfmcppgimcaccdkmbedjkmhi/res/font_9qmmi8b8jsxxbt9.ttf") format("truetype"); }
</style></defs><path d="M540.2112 40.96l-30.3616-21.1968L479.5392 40.96c-376.3712 282.4192-379.392 586.0864-379.392 599.3984 0 199.68 185.1392 362.3424 409.6 362.3424s409.6-162.5088 409.6-362.3424C919.552 323.4816 555.4176 51.7632 540.2112 40.96z m-30.3616 881.92c-176.0256 0-318.6688-125.2352-318.6688-282.368 0-2.7136 3.0208-263.7824 318.6688-514.2016 81.92 69.2736 318.6688 282.368 318.6176 514.2016 0 154.5216-142.3872 282.368-318.6176 282.368z m-124.416-274.3808C364.1856 558.08 443.0848 461.9776 443.0848 461.9776l-72.8064-47.9744c-6.0928 5.12-103.2192 125.2864-75.8784 250.4704 15.36 66.56 63.6928 122.5728 142.6432 162.5088L485.5808 757.76c-57.7024-29.3888-91.0336-64.0512-100.1472-109.2608z" fill="#232632" p-id="2761"></path></svg>